<svg width="59" height="62" viewBox="0 0 59 62" fill="none" xmlns="http://www.w3.org/2000/svg">
<path fill-rule="evenodd" clip-rule="evenodd" d="M30.373 19.9887L41.6021 30.3465C42.2247 30.9208 42.2685 31.8962 41.6999 32.5251C41.6843 32.5424 41.6682 32.5594 41.6518 32.5759C41.0649 33.1684 40.1136 33.1681 39.527 32.5753C39.5052 32.5532 39.4841 32.5305 39.4636 32.5071L29.3199 20.9067C29.0821 20.6347 29.1076 20.2195 29.3768 19.9794C29.3793 19.9772 29.3817 19.975 29.3842 19.9729C29.6704 19.7251 30.0946 19.7319 30.373 19.9887Z" fill="#FFCD41"/>
<path fill-rule="evenodd" clip-rule="evenodd" d="M25.911 46.6098L39.5264 30.7961C40.0667 30.1686 41.0084 30.1023 41.6298 30.648C41.6558 30.6709 41.681 30.6946 41.7053 30.7192C42.3128 31.3324 42.3131 32.3269 41.706 32.9405C41.696 32.9506 41.6859 32.9605 41.6756 32.9703L26.5132 47.4813C26.3414 47.6457 26.0703 47.6383 25.9076 47.4648C25.892 47.4482 25.8777 47.4304 25.8649 47.4115C25.6979 47.1648 25.7168 46.8353 25.911 46.6098Z" fill="#FFCD41"/>
<path fill-rule="evenodd" clip-rule="evenodd" d="M14.5447 46.5846L24.3323 13.23C24.5683 12.4255 25.4054 11.9666 26.2018 12.2051C26.231 12.2138 26.2599 12.2235 26.2886 12.234C27.1178 12.5387 27.5455 13.4647 27.2439 14.3023C27.2438 14.3025 27.2437 14.3027 27.2437 14.3028L15.46 46.9846C15.374 47.223 15.113 47.3459 14.8769 47.2591C14.8681 47.2559 14.8594 47.2523 14.8508 47.2486C14.5975 47.137 14.4662 46.8522 14.5447 46.5846Z" fill="#FFCD41"/>
<path fill-rule="evenodd" clip-rule="evenodd" d="M24.9042 31.2646L40.7717 30.2651C41.5783 30.2143 42.273 30.8336 42.3233 31.6483C42.3251 31.6789 42.3261 31.7096 42.3261 31.7403C42.3261 32.5655 41.6638 33.2345 40.8469 33.2345C40.8215 33.2345 40.7961 33.2338 40.7707 33.2325L24.9311 32.4078C24.6293 32.3921 24.3904 32.1442 24.3829 31.8391C24.3754 31.5372 24.6057 31.2834 24.9042 31.2646Z" fill="#FFCD41"/>
<path fill-rule="evenodd" clip-rule="evenodd" d="M25.927 12.0298H42.1015C42.3443 12.0298 42.5411 12.2287 42.5411 12.4739C42.5411 12.5172 42.5348 12.5602 42.5225 12.6016C42.4194 12.9483 42.1211 13.1992 41.7649 13.2389L25.9176 15.0037C25.1517 15.089 24.4624 14.531 24.378 13.7574C24.3724 13.7061 24.3696 13.6546 24.3696 13.603C24.3696 12.7342 25.0669 12.0298 25.927 12.0298Z" fill="#FFCD41"/>
</svg>
