<svg width="34" height="35" viewBox="0 0 34 35" fill="none" xmlns="http://www.w3.org/2000/svg">
<g clip-path="url(#clip0_721_190)">
<path d="M27.5771 23.9914C26.3879 25.1788 24.9629 26.1036 23.3942 26.7063C21.8255 27.3089 20.1478 27.5759 18.4695 27.4901C16.7842 27.4093 15.1353 26.971 13.6323 26.2043C12.1292 25.4376 10.8064 24.3601 9.7516 23.0431C8.11735 20.9863 7.1955 18.4542 7.12485 15.8282C7.0542 13.2021 7.83857 10.6241 9.35987 8.48239C10.361 7.11552 11.6185 5.95649 13.0623 5.06989C13.4458 4.84318 13.8829 4.72306 14.3284 4.72196C14.7739 4.72086 15.2116 4.83883 15.5962 5.06365C15.9808 5.28847 16.2983 5.61198 16.516 6.00071C16.7336 6.38944 16.8434 6.82925 16.834 7.27465C16.5554 13.4449 21.416 17.7455 27.594 16.8934C28.0376 16.84 28.4875 16.9064 28.8967 17.0857C29.3059 17.2651 29.6596 17.5508 29.921 17.9132C30.1823 18.2756 30.3417 18.7014 30.3827 19.1464C30.4236 19.5913 30.3446 20.0391 30.1538 20.4431C29.4881 21.7548 28.6184 22.9525 27.5771 23.9914ZM12.0745 8.38127C11.6765 8.77733 11.31 9.20383 10.9784 9.65689C9.71147 11.4396 9.05786 13.5857 9.11602 15.772C9.17417 17.9584 9.94093 20.0667 11.3009 21.7795C12.1805 22.8798 13.2843 23.7803 14.5389 24.4211C15.7934 25.0619 17.1699 25.4283 18.577 25.4961C20.6036 25.5621 22.6058 25.0385 24.3406 23.989C26.0755 22.9394 27.4685 21.409 28.3506 19.5833C28.3871 19.503 28.4018 19.4146 28.3931 19.3269C28.3844 19.2392 28.3527 19.1553 28.3011 19.0838C28.2496 19.0123 28.18 18.9557 28.0996 18.9197C28.0191 18.8838 27.9306 18.8697 27.8429 18.879C20.4841 19.905 14.4885 14.5755 14.8343 7.21101C14.8375 7.1257 14.8168 7.0412 14.7745 6.967C14.7323 6.8928 14.6702 6.83185 14.5953 6.79099C14.5191 6.74423 14.4316 6.71918 14.3423 6.71855C14.2529 6.71793 14.1651 6.74176 14.0883 6.78745C13.3552 7.2356 12.679 7.77076 12.0745 8.38127Z" fill="#BCBABA"/>
</g>
<defs>
<clipPath id="clip0_721_190">
<rect width="24" height="24" fill="white" transform="translate(0 17.6274) rotate(-45)"/>
</clipPath>
</defs>
</svg>
