<svg width="32" height="32" viewBox="0 0 32 32" fill="none" xmlns="http://www.w3.org/2000/svg">
<g clip-path="url(#clip0_309_30)">
<path d="M32 14.996C31.8072 11.876 30.7056 8.8807 28.831 6.37925C26.9564 3.8778 24.3907 1.97961 21.4503 0.918679C18.5099 -0.142251 15.3234 -0.319536 12.2835 0.40868C9.24354 1.1369 6.48316 2.73878 4.34264 5.01684C2.20212 7.29491 0.775028 10.1496 0.237296 13.2289C-0.300436 16.3082 0.074702 19.4776 1.31646 22.3463C2.55822 25.215 4.61232 27.6576 7.22552 29.373C9.83872 31.0884 12.8968 32.0016 16.0227 32H25.3334C27.1009 31.9983 28.7956 31.2953 30.0455 30.0455C31.2953 28.7956 31.9983 27.1009 32 25.3334V14.996ZM29.3334 25.3334C29.3334 26.3942 28.9119 27.4116 28.1618 28.1618C27.4117 28.9119 26.3942 29.3334 25.3334 29.3334H16.0227C14.1413 29.3325 12.2812 28.9351 10.5636 28.1671C8.84611 27.3991 7.30974 26.2777 6.05471 24.876C4.79361 23.4751 3.84661 21.8206 3.27723 20.0237C2.70785 18.2268 2.52924 16.3289 2.75337 14.4574C3.10729 11.5053 4.43363 8.75494 6.5233 6.63992C8.61297 4.5249 11.3471 3.1655 14.2947 2.77602C14.8697 2.70395 15.4486 2.66744 16.028 2.66669C19.1353 2.65821 22.1464 3.74389 24.5334 5.73335C25.9274 6.89194 27.0717 8.32156 27.8967 9.93553C28.7218 11.5495 29.2106 13.3142 29.3334 15.1227V25.3334Z" fill="#133448"/>
<path d="M10.6668 12H16.0002C16.3538 12 16.6929 11.8596 16.943 11.6095C17.193 11.3595 17.3335 11.0203 17.3335 10.6667C17.3335 10.3131 17.193 9.97395 16.943 9.7239C16.6929 9.47385 16.3538 9.33337 16.0002 9.33337H10.6668C10.3132 9.33337 9.97407 9.47385 9.72402 9.7239C9.47397 9.97395 9.3335 10.3131 9.3335 10.6667C9.3335 11.0203 9.47397 11.3595 9.72402 11.6095C9.97407 11.8596 10.3132 12 10.6668 12Z" fill="#133448"/>
<path d="M21.3335 14.6666H10.6668C10.3132 14.6666 9.97407 14.8071 9.72402 15.0572C9.47397 15.3072 9.3335 15.6463 9.3335 16C9.3335 16.3536 9.47397 16.6927 9.72402 16.9428C9.97407 17.1928 10.3132 17.3333 10.6668 17.3333H21.3335C21.6871 17.3333 22.0263 17.1928 22.2763 16.9428C22.5264 16.6927 22.6668 16.3536 22.6668 16C22.6668 15.6463 22.5264 15.3072 22.2763 15.0572C22.0263 14.8071 21.6871 14.6666 21.3335 14.6666Z" fill="#133448"/>
<path d="M21.3335 20H10.6668C10.3132 20 9.97407 20.1405 9.72402 20.3905C9.47397 20.6406 9.3335 20.9797 9.3335 21.3333C9.3335 21.687 9.47397 22.0261 9.72402 22.2761C9.97407 22.5262 10.3132 22.6667 10.6668 22.6667H21.3335C21.6871 22.6667 22.0263 22.5262 22.2763 22.2761C22.5264 22.0261 22.6668 21.687 22.6668 21.3333C22.6668 20.9797 22.5264 20.6406 22.2763 20.3905C22.0263 20.1405 21.6871 20 21.3335 20Z" fill="#133448"/>
</g>
<defs>
<clipPath id="clip0_309_30">
<rect width="32" height="32" fill="white"/>
</clipPath>
</defs>
</svg>
