<svg width="32" height="32" viewBox="0 0 32 32" fill="none" xmlns="http://www.w3.org/2000/svg">
<g clip-path="url(#clip0_309_26)">
<path d="M30.828 12.0919L20.7147 1.97728C19.463 0.729263 17.7676 0.0284424 16 0.0284424C14.2325 0.0284424 12.537 0.729263 11.2853 1.97728L1.17202 12.0919C0.79925 12.4623 0.503709 12.903 0.302526 13.3885C0.101343 13.8739 -0.00148053 14.3945 1.6106e-05 14.9199V28.0093C1.6106e-05 29.0701 0.421443 30.0876 1.17159 30.8377C1.92173 31.5879 2.93915 32.0093 4.00002 32.0093H28C29.0609 32.0093 30.0783 31.5879 30.8284 30.8377C31.5786 30.0876 32 29.0701 32 28.0093V14.9199C32.0015 14.3945 31.8987 13.8739 31.6975 13.3885C31.4963 12.903 31.2008 12.4623 30.828 12.0919ZM20 29.3426H12V24.0973C12 23.0364 12.4214 22.019 13.1716 21.2689C13.9217 20.5187 14.9392 20.0973 16 20.0973C17.0609 20.0973 18.0783 20.5187 18.8284 21.2689C19.5786 22.019 20 23.0364 20 24.0973V29.3426ZM29.3333 28.0093C29.3333 28.3629 29.1929 28.702 28.9428 28.9521C28.6928 29.2021 28.3536 29.3426 28 29.3426H22.6667V24.0973C22.6667 22.3292 21.9643 20.6335 20.7141 19.3832C19.4638 18.133 17.7681 17.4306 16 17.4306C14.2319 17.4306 12.5362 18.133 11.286 19.3832C10.0357 20.6335 9.33335 22.3292 9.33335 24.0973V29.3426H4.00002C3.64639 29.3426 3.30726 29.2021 3.05721 28.9521C2.80716 28.702 2.66668 28.3629 2.66668 28.0093V14.9199C2.66792 14.5666 2.80827 14.2279 3.05735 13.9773L13.1707 3.86661C13.9223 3.11852 14.9396 2.69853 16 2.69853C17.0605 2.69853 18.0778 3.11852 18.8293 3.86661L28.9427 13.9813C29.1908 14.2309 29.3311 14.568 29.3333 14.9199V28.0093Z" fill="#133448"/>
</g>
<defs>
<clipPath id="clip0_309_26">
<rect width="32" height="32" fill="white"/>
</clipPath>
</defs>
</svg>
