<svg width="32" height="32" viewBox="0 0 32 32" fill="none" xmlns="http://www.w3.org/2000/svg">
<g clip-path="url(#clip0_309_21)">
<path d="M32.0002 30.1146L23.6509 21.7653C25.8197 19.1127 26.886 15.7281 26.6293 12.3114C26.3726 8.89466 24.8125 5.70733 22.2716 3.40865C19.7308 1.10997 16.4037 -0.12419 12.9784 -0.0385478C9.55312 0.0470946 6.2918 1.44598 3.86902 3.86877C1.44623 6.29156 0.0473388 9.55288 -0.0383037 12.9781C-0.123946 16.4034 1.11021 19.7306 3.40889 22.2714C5.70757 24.8122 8.89491 26.3724 12.3116 26.6291C15.7283 26.8858 19.113 25.8195 21.7655 23.6506L30.1149 32L32.0002 30.1146ZM13.3335 24C11.2239 24 9.16157 23.3744 7.40745 22.2023C5.65332 21.0302 4.28615 19.3643 3.47882 17.4152C2.67148 15.4662 2.46025 13.3215 2.87182 11.2523C3.2834 9.18319 4.2993 7.28258 5.79106 5.79081C7.28282 4.29905 9.18344 3.28315 11.2526 2.87158C13.3217 2.46 15.4664 2.67124 17.4155 3.47857C19.3646 4.28591 21.0305 5.65308 22.2025 7.4072C23.3746 9.16133 24.0002 11.2236 24.0002 13.3333C23.997 16.1613 22.8722 18.8726 20.8725 20.8723C18.8728 22.872 16.1615 23.9968 13.3335 24Z" fill="#133448"/>
</g>
<defs>
<clipPath id="clip0_309_21">
<rect width="32" height="32" fill="white"/>
</clipPath>
</defs>
</svg>
