<svg width="90" height="94" viewBox="0 0 90 94" fill="none" xmlns="http://www.w3.org/2000/svg">
<path d="M62.0497 90.097H3.89752V28.0597C3.89752 14.7091 14.6755 3.90298 27.9503 3.90298H86.1025V65.9403C86.1025 79.2909 75.3245 90.097 62.0497 90.097Z" stroke="black" stroke-width="5"/>
<path fill-rule="evenodd" clip-rule="evenodd" d="M46.3317 30.3054L63.4608 46.0092C64.4105 46.8799 64.4773 48.3587 63.61 49.3122C63.5861 49.3384 63.5616 49.3641 63.5366 49.3893C62.6413 50.2875 61.1902 50.2871 60.2954 49.3883C60.2622 49.3549 60.2299 49.3204 60.1987 49.285L44.7253 31.6972C44.3625 31.2849 44.4014 30.6554 44.8121 30.2912C44.8158 30.288 44.8196 30.2847 44.8233 30.2815C45.2599 29.9058 45.9071 29.9161 46.3317 30.3054Z" fill="black"/>
<path fill-rule="evenodd" clip-rule="evenodd" d="M39.5252 70.6664L60.2944 46.6909C61.1187 45.7394 62.5552 45.6389 63.503 46.4664C63.5426 46.501 63.5811 46.537 63.6182 46.5742C64.5449 47.5039 64.5453 49.0117 63.6192 49.942C63.604 49.9573 63.5886 49.9724 63.5729 49.9873L40.4438 71.9878C40.1818 72.237 39.7682 72.2258 39.5199 71.9628C39.4962 71.9376 39.4744 71.9105 39.4549 71.8819C39.2001 71.5079 39.229 71.0083 39.5252 70.6664Z" fill="black"/>
<path fill-rule="evenodd" clip-rule="evenodd" d="M22.1869 70.6282L37.117 20.0584C37.4771 18.8387 38.7539 18.143 39.9689 18.5045C40.0134 18.5177 40.0575 18.5324 40.1012 18.5483C41.3662 19.0102 42.0186 20.4142 41.5585 21.6841C41.5584 21.6844 41.5583 21.6847 41.5581 21.685L23.583 71.2347C23.4519 71.5962 23.0537 71.7825 22.6936 71.6509C22.6802 71.646 22.6669 71.6407 22.6538 71.6349C22.2673 71.4658 22.0671 71.034 22.1869 70.6282Z" fill="black"/>
<path fill-rule="evenodd" clip-rule="evenodd" d="M37.9894 47.4011L62.1941 45.8858C63.4245 45.8087 64.4842 46.7477 64.5609 47.9829C64.5638 48.0294 64.5653 48.0759 64.5653 48.1224C64.5653 49.3735 63.555 50.3877 62.3088 50.3877C62.2701 50.3877 62.2313 50.3867 62.1926 50.3847L38.0305 49.1344C37.5701 49.1106 37.2057 48.7348 37.1942 48.2722C37.1829 47.8144 37.5342 47.4296 37.9894 47.4011Z" fill="black"/>
<path fill-rule="evenodd" clip-rule="evenodd" d="M39.5497 18.2388H64.2225C64.5929 18.2388 64.8932 18.5402 64.8932 18.912C64.8932 18.9776 64.8836 19.0429 64.8648 19.1057C64.7075 19.6313 64.2525 20.0117 63.7092 20.0718L39.5354 22.7476C38.367 22.8769 37.3155 22.0309 37.1867 20.858C37.1782 20.7803 37.1739 20.7021 37.1739 20.6239C37.1739 19.3066 38.2376 18.2388 39.5497 18.2388Z" fill="black"/>
</svg>
